<svg id="Layer_1" data-name="Layer 1" xmlns="http://www.w3.org/2000/svg" viewBox="0 0 100 100"><defs><style>.cls-1{fill:#a65f27;}.cls-2{fill:#dda977;}.cls-3{fill:#552700;}.cls-4{fill:#472b29;}.cls-5{fill:#854918;}</style></defs><path class="cls-1" d="M87.2,56.7A16,16,0,0,0,89,49.5,15.58,15.58,0,0,0,79,35h0a21,21,0,0,0-41.3-5.2A14.49,14.49,0,0,0,33,29,15,15,0,0,0,18.1,42.3,11.47,11.47,0,0,0,20.5,65H21v.5A20.48,20.48,0,0,0,57.4,78.4a12.06,12.06,0,0,0,19.3-2.9A12.57,12.57,0,0,0,80,76a11,11,0,0,0,7.2-19.3Z"/><path class="cls-2" d="M72.5,43.5V44h-3v-.5H64A4.48,4.48,0,0,1,59.5,39a4.63,4.63,0,0,1,4.1-4.5,4.33,4.33,0,0,0-.1-.5A4.48,4.48,0,0,1,68,29.5a4.56,4.56,0,0,1,3.5,1.7,5,5,0,0,1,10,.3,5.85,5.85,0,0,1-.2,1.3A3.37,3.37,0,0,1,84,31.5a3.55,3.55,0,0,1,3.5,3.1,4.33,4.33,0,0,0,.5-.1,4.5,4.5,0,0,1,0,9H72.5Z"/><path class="cls-3" d="M76.5,26A5.55,5.55,0,0,1,82,31.5h0a3.51,3.51,0,0,1,2-.5,4.17,4.17,0,0,1,3.9,3H88a5,5,0,0,1,0,10H72.5a.5.5,0,0,1,0-1H88a4,4,0,0,0,0-8h-.5c-.2,0-.5-.2-.5-.4a3,3,0,0,0-5.3-1.5.52.52,0,0,1-.4.2c-.1,0-.2,0-.2-.1a.6.6,0,0,1-.3-.6,5,5,0,0,0,.2-1.2,4.48,4.48,0,0,0-4.5-4.5A4.58,4.58,0,0,0,72,31.2a.85.85,0,0,1-.3.5h-.2a.52.52,0,0,1-.4-.2A3.88,3.88,0,0,0,68,30a4,4,0,0,0-4,4v.4a.6.6,0,0,1-.1.4c0,.2-.2.2-.3.2A3.94,3.94,0,0,0,60,39a4,4,0,0,0,4,4h5.5a.5.5,0,0,1,0,1H64a5,5,0,0,1-5-5,5,5,0,0,1,4-4.9V34a5,5,0,0,1,5-5,4.72,4.72,0,0,1,3.2,1.2A5.47,5.47,0,0,1,76.5,26Z"/><path class="cls-4" d="M78,33a3,3,0,0,1,2.9,2.3,2.66,2.66,0,0,1,1.2-.3,2.46,2.46,0,0,1,2.4,2.1c.2,0,.4-.1.6-.1A2.94,2.94,0,0,1,88,39.7c0,.1-.1.3-.2.3h0a.22.22,0,0,1-.2-.2,2.48,2.48,0,0,0-2.4-2.3,1.7,1.7,0,0,0-.7.1h-.1c-.1,0-.1,0-.2-.1s-.1-.1-.1-.2a1.9,1.9,0,0,0-1.9-1.9,1.85,1.85,0,0,0-1.2.5.35.35,0,0,1-.2.1h-.1c-.1,0-.1-.1-.2-.2A2.51,2.51,0,0,0,78,33.5a2,2,0,0,0-.7.1h-.1a.22.22,0,0,1-.2-.2c0-.1,0-.3.2-.3A2.2,2.2,0,0,1,78,33ZM64.1,34.5A3.09,3.09,0,0,1,67,36.7c0,.1,0,.3-.2.3h-.1a.22.22,0,0,1-.2-.2A2.46,2.46,0,0,0,64.1,35h-.3a.22.22,0,0,1-.2-.2c0-.1.1-.3.2-.3Z"/><path class="cls-2" d="M86.5,68h-10a.5.5,0,0,1,0-1h10a.5.5,0,0,1,0,1Zm3,0h-1a.5.5,0,0,1,0-1h1a.5.5,0,0,1,0,1Zm5,2h-9a.5.5,0,0,1,0-1h9a.5.5,0,0,1,0,1Zm-11,0h-1a.5.5,0,0,1,0-1h1a.5.5,0,0,1,0,1Zm-3,0h-2a.5.5,0,0,1,0-1h2a.5.5,0,0,1,0,1Zm6,2h-2a.5.5,0,0,1,0-1h2a.5.5,0,0,1,0,1Zm3-9h-1a.5.5,0,0,0,0,1h1a.5.5,0,0,0,0-1Zm0,2h-5a.5.5,0,0,0,0,1h5a.5.5,0,0,0,0-1Zm5,2h-3a.5.5,0,0,0,0,1h3a.5.5,0,0,0,0-1Z"/><path class="cls-2" d="M48.5,20h-10a.5.5,0,0,1,0-1h10a.5.5,0,0,1,0,1Zm4,0h-2a.5.5,0,0,1,0-1h2a.5.5,0,0,1,0,1Zm5,2h-10a.5.5,0,0,1,0-1h10a.5.5,0,0,1,0,1Zm-12,0h-1a.5.5,0,0,1,0-1h1a.5.5,0,0,1,0,1Zm-3,0h-2a.5.5,0,0,1,0-1h2a.47.47,0,0,1,.5.5A.54.54,0,0,1,42.5,22Zm9-4h-5a.5.5,0,0,1,0-1h5a.5.5,0,0,1,0,1Zm-3,6h-2a.5.5,0,0,1,0-1h2a.5.5,0,0,1,0,1Z"/><path class="cls-5" d="M52,26.8A23.2,23.2,0,1,0,75.2,50,23.22,23.22,0,0,0,52,26.8Z"/><path class="cls-5" d="M52,73.9A24,24,0,1,1,75.9,50,24,24,0,0,1,52,73.9Zm0-46.4A22.55,22.55,0,1,0,74.6,50,22.53,22.53,0,0,0,52,27.5Z"/><path class="cls-3" d="M69.4,59.2c-.1,0-.1,0-.2-.1a.48.48,0,0,1-.2-.7,3,3,0,0,1,.4-.8,17,17,0,0,0,1-3.2A.55.55,0,0,1,71,54c.3,0,.4.3.4.6a18.26,18.26,0,0,1-1.1,3.3,2,2,0,0,1-.4.8C69.8,59.1,69.6,59.2,69.4,59.2Z"/><path class="cls-3" d="M71.4,52.4h0a.54.54,0,0,1-.5-.5c0-.4.1-.8.1-1.2a18.65,18.65,0,0,0-1.3-7.4.47.47,0,0,1,.9-.3A20.72,20.72,0,0,1,72,50.8a5.7,5.7,0,0,1-.1,1.3C71.9,52.2,71.7,52.4,71.4,52.4Z"/><path class="cls-3" d="M37.7,37.2a.37.37,0,0,1-.3-.1.48.48,0,0,1,0-.7,20,20,0,0,1,12.4-6.2.68.68,0,0,1,.6.4c.1.2-.2.5-.4.6a19.12,19.12,0,0,0-11.8,5.9A.9.9,0,0,1,37.7,37.2Z"/><path class="cls-3" d="M38.7,64.8a.37.37,0,0,1-.3-.1,19.94,19.94,0,0,1-3.8-24.5.51.51,0,1,1,.9.5A18.88,18.88,0,0,0,39.1,64a.48.48,0,0,1,0,.7C39,64.7,38.9,64.8,38.7,64.8Z"/><path class="cls-3" d="M60.5,68.1a.55.55,0,0,1-.5-.3.66.66,0,0,1,.2-.7A18.83,18.83,0,0,0,65.8,63a12.39,12.39,0,0,0,1.8-2.2.5.5,0,1,1,.8.6,21.1,21.1,0,0,1-1.9,2.3A19.06,19.06,0,0,1,60.6,68C60.7,68.1,60.6,68.1,60.5,68.1Z"/><path class="cls-2" d="M48.5,73V56.5h-6v-6h6v-6c-.1-5.3,5.2-10.6,14-7.7v5.6H59.1c-2.6,0-3.6.6-3.6,2.4v5.6h6.8l-1.2,6H55.5V73"/><path class="cls-3" d="M56,73H55V56h5.7l1-5H55V44.9c0-2.6,2-2.9,4.1-2.9H62V37.3c-3.8-1.2-7.3-.9-9.8,1A8,8,0,0,0,49,44.6V51H43v5h6V73H48V57H42V50h6V44.5a8.5,8.5,0,0,1,3.6-7.1c2.9-2.1,6.8-2.5,11.1-1l.3.1V43H59.1c-2.6,0-3.1.6-3.1,1.9V50h6.9l-1.4,7H56Z"/><path class="cls-3" d="M52,73.9A23.9,23.9,0,1,1,75.9,50,23.9,23.9,0,0,1,52,73.9Zm0-46.4A22.5,22.5,0,1,0,74.5,50,22.53,22.53,0,0,0,52,27.5Z"/><path class="cls-2" d="M36.5,66.5H40a3.51,3.51,0,0,0,.4-7,4.33,4.33,0,0,1,.1-.5,3.47,3.47,0,0,0-6.1-2.3,4.06,4.06,0,0,0-3.9-3.2,4,4,0,0,0-4,4,1.27,1.27,0,0,0,.1.6,2.83,2.83,0,0,0-1.6-.6,2.65,2.65,0,0,0-2.5,2.1,4.33,4.33,0,0,1-.5-.1,3.5,3.5,0,0,0,0,7h7.5V67h7Z"/><path class="cls-2" d="M38.2,62a.22.22,0,0,1-.2-.2,2.22,2.22,0,0,1,2.2-2.2,7.5,7.5,0,0,1,1.2.1c.1,0,.2.2.2.3s-.2.2-.3.2a3.08,3.08,0,0,0-1.1-.2,1.75,1.75,0,0,0-1.7,1.7A.27.27,0,0,1,38.2,62Zm-6.7,4a.5.5,0,1,0,.5.5A.47.47,0,0,0,31.5,66Z"/><path class="cls-3" d="M40,67H36.5a.5.5,0,0,1,0-1H40a3,3,0,0,0,3-3,3,3,0,0,0-2.6-3c-.1,0-.3-.1-.3-.2s-.1-.2-.1-.4v-.5a3,3,0,0,0-3-3,3.21,3.21,0,0,0-2.2,1,.44.44,0,0,1-.5.1c-.2,0-.3-.2-.4-.4a3.48,3.48,0,0,0-6.9.7v.4a.76.76,0,0,1-.2.5.63.63,0,0,1-.6,0c-.3,0-.8-.2-1.2-.2a2,2,0,0,0-2,1.6c0,.3-.3.4-.6.4h-.5a3,3,0,0,0,0,6h7.5a.47.47,0,0,1,.5.5c0,.3-.1.5-.4.5H22a4,4,0,0,1,0-8h.2A2.91,2.91,0,0,1,25,57a3.55,3.55,0,0,1,1,.2,4.53,4.53,0,0,1,8.7-1.4A3.92,3.92,0,0,1,41,59v.1A4,4,0,0,1,40,67Z"/><path class="cls-2" d="M34.5,66h-1a.5.5,0,0,0,0,1h1a.5.5,0,0,0,0-1Z"/></svg>