<svg id="Layer_1" data-name="Layer 1" xmlns="http://www.w3.org/2000/svg" viewBox="0 0 100 100"><defs><style>.cls-1{fill:#a65f27;}.cls-2{fill:#dda977;}.cls-3{fill:#552700;}.cls-4{fill:#fdfcef;}.cls-5{fill:#472b29;}.cls-6{fill:#e0b189;}.cls-7{fill:#854918;}</style></defs><path class="cls-1" d="M88.7,56.85a15.39,15.39,0,0,0,.8-1.9c2.6-7.8-1.3-17.1-9.7-19.3-.9-11.5-8.9-19.3-18-20.6-10.3-1.5-19.8,5-23,15.5a12.54,12.54,0,0,0-11,.9,13.06,13.06,0,0,0-4.3,3.2,16.08,16.08,0,0,0-3.7,7.5,8.73,8.73,0,0,0-2.2.5,10.62,10.62,0,0,0-7.3,8.9,13.43,13.43,0,0,0,.9,6.7,10.25,10.25,0,0,0,11,6.3,2.35,2.35,0,0,1,.8.2,21.39,21.39,0,0,0,8.9,17c8.3,5.8,19,4,25.8-3.9a11.81,11.81,0,0,0,10.4,3.9,12.78,12.78,0,0,0,9.4-6.3,20.26,20.26,0,0,0,3.1.8c4,.4,7.3-1.2,9.7-4.8a10.84,10.84,0,0,0,1.8-6.4A10.5,10.5,0,0,0,88.7,56.85Z"/><path class="cls-2" d="M18.4,48.85H8.4a.5.5,0,1,1,0-1h10a.47.47,0,0,1,.5.5A.54.54,0,0,1,18.4,48.85Zm2.8,0H19.8a.5.5,0,0,1,0-1h1.4a.5.5,0,0,1,0,1Zm4.1,0H22.8a.5.5,0,0,1,0-1h2.5a.5.5,0,1,1,0,1Zm0,1.9H15.7a.5.5,0,0,1,0-1h9.6a.5.5,0,0,1,0,1Zm-11.3,0h-.6a.5.5,0,1,1,0-1H14a.47.47,0,0,1,.5.5A.54.54,0,0,1,14,50.75Zm-2.4,0H10.1a.5.5,0,0,1,0-1h1.5a.5.5,0,1,1,0,1ZM20.7,47h-5a.5.5,0,0,1,0-1h5a.5.5,0,1,1,0,1Zm0-1.8H19.4a.5.5,0,0,1,0-1h1.3a.5.5,0,0,1,0,1Zm-3.3,7.4H15.6a.5.5,0,1,1,0-1h1.8a.5.5,0,0,1,0,1Zm57-26h-10a.5.5,0,0,1,0-1h10a.5.5,0,0,1,0,1Zm2.9,0H75.9a.5.5,0,0,1,0-1h1.4a.5.5,0,0,1,0,1Zm4,0H78.8a.5.5,0,0,1,0-1h2.5a.5.5,0,0,1,0,1Zm0,1.9H71.7a.5.5,0,0,1,0-1h9.6a.5.5,0,0,1,0,1Zm-11.3,0h-.6a.5.5,0,0,1,0-1H70a.5.5,0,0,1,0,1Zm-2.4,0H66.1a.5.5,0,0,1,0-1h1.5a.5.5,0,0,1,0,1Zm9.1-3.8h-5a.5.5,0,0,1,0-1h5a.5.5,0,0,1,0,1Zm0-1.8H75.4a.5.5,0,0,1,0-1h1.3a.5.5,0,0,1,0,1Zm-3.2,7.4H71.7a.5.5,0,0,1,0-1h1.8a.47.47,0,0,1,.5.5A.54.54,0,0,1,73.5,30.25Z"/><path class="cls-2" d="M75,49.65H85.7a4.4,4.4,0,0,0,.9-8.7v-.6a4.65,4.65,0,0,0-4.6-4.6,4.74,4.74,0,0,0-3.7,1.8,5,5,0,0,0-10-.5,6.69,6.69,0,0,0,0,2,3.26,3.26,0,0,0-2.3-1,3.18,3.18,0,0,0-3.2,3,3.66,3.66,0,0,0-2.5.2,4.3,4.3,0,0,0-2.9,4,4.42,4.42,0,0,0,4.4,4.6H72"/><path class="cls-3" d="M85.6,50.15H75a.5.5,0,0,1,0-1H85.7a3.9,3.9,0,0,0,3.9-3.9,4,4,0,0,0-3.1-3.9.51.51,0,0,1-.4-.5v-.5a4.06,4.06,0,0,0-4.1-4.1,4.22,4.22,0,0,0-3.3,1.6c-.1.2-.3.2-.5.2a.78.78,0,0,1-.4-.4,4.64,4.64,0,0,0-1.7-3.2,4.84,4.84,0,0,0-3.5-1,4.45,4.45,0,0,0-3.9,3.7,5.44,5.44,0,0,0,0,1.8.55.55,0,0,1-.3.5.47.47,0,0,1-.6-.1,2.52,2.52,0,0,0-2-.9A2.72,2.72,0,0,0,63.1,41a.76.76,0,0,1-.2.4.6.6,0,0,1-.4.1,3.3,3.3,0,0,0-2.2.2,4.13,4.13,0,0,0-2.6,3.5,3.93,3.93,0,0,0,3.9,4.1H71.8a.47.47,0,0,1,.5.5c0,.3.1.4-.2.4H61.9a4.91,4.91,0,0,1-3.6-1.5,5.43,5.43,0,0,1-1.4-3.6,5.07,5.07,0,0,1,3.3-4.4,4.22,4.22,0,0,1,2.2-.3,3.65,3.65,0,0,1,3.6-2.9,4.71,4.71,0,0,1,1.7.4,3.4,3.4,0,0,1,.1-1,5.63,5.63,0,0,1,4.8-4.5,5.38,5.38,0,0,1,4.2,1.2,5.16,5.16,0,0,1,1.8,2.9,5.07,5.07,0,0,1,3.3-1.3,5.12,5.12,0,0,1,5.1,5.1v.2a5,5,0,0,1,3.5,4.7A4.81,4.81,0,0,1,85.6,50.15Z"/><path class="cls-4" d="M72.4,40a2.92,2.92,0,0,0-3.2,2.5V43a1.61,1.61,0,0,0-1.3-.6,1.87,1.87,0,0,0-2,1.5c-.2,0-.4-.1-.6-.1A2.58,2.58,0,0,0,62.5,46"/><path class="cls-5" d="M62.7,46.25h0c-.2,0-.3-.1-.2-.3a2.65,2.65,0,0,1,3-2.4h.4a2.09,2.09,0,0,1,2.2-1.4,1.69,1.69,0,0,1,1,.3h0a3.21,3.21,0,0,1,3.4-2.8c.1,0,.2.1.2.3s-.1.2-.3.2a2.61,2.61,0,0,0-2.9,2.3V43a.22.22,0,1,1-.4.2,2.28,2.28,0,0,0-1.2-.6,1.55,1.55,0,0,0-1.7,1.3c0,.1-.1.1-.1.2s-.1.1-.2,0-.3-.1-.5-.1a2.27,2.27,0,0,0-2.5,2C62.9,46.15,62.8,46.25,62.7,46.25Z"/><path class="cls-6" d="M87.4,41.45a3,3,0,0,0-4,1.2c-.1.2-.1.3-.2.5"/><path class="cls-5" d="M83.3,43.35h0c-.2,0-.3-.2-.2-.3a1.42,1.42,0,0,1,.2-.6,3.19,3.19,0,0,1,4.3-1.3c.1.1.2.2.1.3s-.2.2-.3.1a2.77,2.77,0,0,0-3.7,1c-.1.1-.1.3-.2.5S83.4,43.35,83.3,43.35Z"/><path class="cls-7" d="M65.3,71.15H39.5a6.81,6.81,0,0,1-6.8-6.8V38.55a6.81,6.81,0,0,1,6.8-6.8H65.2a6.81,6.81,0,0,1,6.8,6.8v25.7A6.75,6.75,0,0,1,65.3,71.15Z"/><path class="cls-3" d="M65.3,71.85H39.5a7.49,7.49,0,0,1-7.5-7.5V38.55a7.49,7.49,0,0,1,7.5-7.5H65.2a7.49,7.49,0,0,1,7.5,7.5v25.7A7.43,7.43,0,0,1,65.3,71.85ZM39.5,32.45a6.12,6.12,0,0,0-6.1,6.1v25.7a6.12,6.12,0,0,0,6.1,6.1H65.2a6.12,6.12,0,0,0,6.1-6.1V38.55a6.12,6.12,0,0,0-6.1-6.1Z"/><path class="cls-2" d="M63.7,68.35H41.1a5.48,5.48,0,0,1-5.5-5.5V40.05a5.48,5.48,0,0,1,5.5-5.5H63.8a5.48,5.48,0,0,1,5.5,5.5v22.7A5.59,5.59,0,0,1,63.7,68.35Z"/><path class="cls-3" d="M64.2,68.65H40.6a5.55,5.55,0,0,1-5.5-5.5V39.65a5.55,5.55,0,0,1,5.5-5.5H63a.32.32,0,0,1,.3.3.45.45,0,0,1-.3.3H40.6a4.8,4.8,0,0,0-4.8,4.8v23.6A4.8,4.8,0,0,0,40.6,68H64.1a4.8,4.8,0,0,0,4.8-4.8v-13a.32.32,0,0,1,.3-.3.45.45,0,0,1,.3.3v13A5.32,5.32,0,0,1,64.2,68.65Z"/><path class="cls-3" d="M69.3,48.65a.32.32,0,0,1-.3-.3v-2.5a.32.32,0,0,1,.3-.3.45.45,0,0,1,.3.3v2.5A.32.32,0,0,1,69.3,48.65Zm0-3.8a.32.32,0,0,1-.3-.3v-1.3a.32.32,0,0,1,.3-.3.45.45,0,0,1,.3.3v1.3A.27.27,0,0,1,69.3,44.85Z"/><path class="cls-7" d="M62.4,44.45a5.54,5.54,0,0,0-1.2-1.9,4.36,4.36,0,0,0-1.9-1.2,8.56,8.56,0,0,0-2.6-.5c-1.1,0-1.5-.1-4.4-.1a42.72,42.72,0,0,0-4.4.1,6.33,6.33,0,0,0-2.6.5,5.54,5.54,0,0,0-1.9,1.2,4.36,4.36,0,0,0-1.2,1.9,8.56,8.56,0,0,0-.5,2.6c0,1.1-.1,1.5-.1,4.4a42.72,42.72,0,0,0,.1,4.4,6.33,6.33,0,0,0,.5,2.6,5.54,5.54,0,0,0,1.2,1.9,4.36,4.36,0,0,0,1.9,1.2,8.56,8.56,0,0,0,2.6.5c1.1,0,1.5.1,4.4.1a42.72,42.72,0,0,0,4.4-.1,6.33,6.33,0,0,0,2.6-.5,5.54,5.54,0,0,0,1.9-1.2,4.36,4.36,0,0,0,1.2-1.9,8.56,8.56,0,0,0,.5-2.6c0-1.1.1-1.5.1-4.4a42.72,42.72,0,0,0-.1-4.4A6.33,6.33,0,0,0,62.4,44.45Z"/><path class="cls-3" d="M52.4,62.35a42.72,42.72,0,0,1-4.4-.1,7.22,7.22,0,0,1-2.7-.5,5.75,5.75,0,0,1-3.3-3.3,7.22,7.22,0,0,1-.5-2.7,41.57,41.57,0,0,1-.1-4.4,42.72,42.72,0,0,1,.1-4.4,7.22,7.22,0,0,1,.5-2.7A5.75,5.75,0,0,1,45.3,41a7.22,7.22,0,0,1,2.7-.5,41.57,41.57,0,0,1,4.4-.1,41.57,41.57,0,0,1,4.4.1,7.22,7.22,0,0,1,2.7.5,5.75,5.75,0,0,1,3.3,3.3h0a7.22,7.22,0,0,1,.5,2.7,41.57,41.57,0,0,1,.1,4.4,42.72,42.72,0,0,1-.1,4.4,7.22,7.22,0,0,1-.5,2.7,5.75,5.75,0,0,1-3.3,3.3,7.22,7.22,0,0,1-2.7.5A41.57,41.57,0,0,1,52.4,62.35Zm0-21.2a42.72,42.72,0,0,0-4.4.1,6.55,6.55,0,0,0-2.5.5,6.7,6.7,0,0,0-1.8,1.1,3.41,3.41,0,0,0-1.1,1.8,8.5,8.5,0,0,0-.5,2.5c0,1.1-.1,1.5-.1,4.4a42.72,42.72,0,0,0,.1,4.4,6.55,6.55,0,0,0,.5,2.5,6.7,6.7,0,0,0,1.1,1.8,3.41,3.41,0,0,0,1.8,1.1,8.5,8.5,0,0,0,2.5.5c1.1,0,1.5.1,4.4.1a42.72,42.72,0,0,0,4.4-.1,6.55,6.55,0,0,0,2.5-.5,6.7,6.7,0,0,0,1.8-1.1,4.18,4.18,0,0,0,1.1-1.8,8.5,8.5,0,0,0,.5-2.5c0-1.1.1-1.5.1-4.4a42.72,42.72,0,0,0-.1-4.4,6.55,6.55,0,0,0-.5-2.5h0a6.7,6.7,0,0,0-1.1-1.8,4.18,4.18,0,0,0-1.8-1.1,8.5,8.5,0,0,0-2.5-.5A42.72,42.72,0,0,0,52.4,41.15Z"/><path class="cls-2" d="M52.4,46a5.4,5.4,0,1,0,5.4,5.4A5.38,5.38,0,0,0,52.4,46Z"/><path class="cls-5" d="M52.4,57.25a5.8,5.8,0,1,1,5.8-5.8A5.8,5.8,0,0,1,52.4,57.25Zm0-10.9a5.1,5.1,0,1,0,5.1,5.1A5.12,5.12,0,0,0,52.4,46.35Z"/><path class="cls-2" d="M58.3,44.15a1.3,1.3,0,1,0,1.3,1.3A1.32,1.32,0,0,0,58.3,44.15Z"/><path class="cls-5" d="M58.3,47.05a1.6,1.6,0,1,1,1.6-1.6A1.72,1.72,0,0,1,58.3,47.05Zm0-2.6a.9.9,0,1,0,.9.9A.9.9,0,0,0,58.3,44.45Z"/><path class="cls-2" d="M42.1,73.65h3.2a3.46,3.46,0,0,0,3.5-3.4A3.42,3.42,0,0,0,46,67v-.4a3.56,3.56,0,0,0-3.6-3.5,3.86,3.86,0,0,0-2.9,1.4,4,4,0,0,0-4.5-3.6A3.94,3.94,0,0,0,31.6,64a3.79,3.79,0,0,0,0,1.5A2.48,2.48,0,0,0,27.3,67a4.15,4.15,0,0,0-1.9.1,3.58,3.58,0,0,0-2.3,3,3.42,3.42,0,0,0,3.5,3.5h8m1.6.1h.3"/><path class="cls-3" d="M45.3,74.15H42.1a.5.5,0,1,1,0-1h3.2a3,3,0,0,0,3-2.9,2.8,2.8,0,0,0-2.4-2.8.55.55,0,0,1-.4-.6v-.4a3.14,3.14,0,0,0-5.6-1.8c-.1.2-.3.2-.5.2a.78.78,0,0,1-.4-.4,3.47,3.47,0,0,0-1.2-2.3,3.63,3.63,0,0,0-2.7-.8,3.52,3.52,0,0,0-3,2.7,2.85,2.85,0,0,0,0,1.3.55.55,0,0,1-.3.5.47.47,0,0,1-.6-.1,1.31,1.31,0,0,0-1.2-.6A2,2,0,0,0,28,67a.76.76,0,0,1-.2.4.6.6,0,0,1-.4.1,2.86,2.86,0,0,0-1.6.1,3.17,3.17,0,0,0-2,2.6,3.23,3.23,0,0,0,.8,2.1,2.94,2.94,0,0,0,2.2.9h8a.47.47,0,0,1,.5.5.54.54,0,0,1-.5.5h-8A4,4,0,0,1,23.9,73a4.3,4.3,0,0,1-1.1-2.8,4.13,4.13,0,0,1,2.6-3.5,3.21,3.21,0,0,1,1.7-.2,2.92,2.92,0,0,1,2.9-2.2,2.38,2.38,0,0,1,1.2.3,1.27,1.27,0,0,1,.1-.6,4.47,4.47,0,0,1,3.8-3.5,4.53,4.53,0,0,1,4.8,3,3.92,3.92,0,0,1,2.6-.9,4,4,0,0,1,4.1,4v.1a3.87,3.87,0,0,1,2.7,3.7A4,4,0,0,1,45.3,74.15Zm-8.7,0h-.3a.47.47,0,0,1-.5-.5.46.46,0,0,1,.4-.5h.3a.47.47,0,0,1,.5.5A.46.46,0,0,1,36.6,74.15Z"/><path class="cls-5" d="M43.8,68.85h0c-.2,0-.3-.2-.2-.3a.52.52,0,0,1,.2-.4,2.6,2.6,0,0,1,3.4-.9c.1.1.2.2.1.3s-.2.2-.3.1a2.12,2.12,0,0,0-2.8.7.37.37,0,0,0-.1.3C44,68.75,43.9,68.85,43.8,68.85Zm-4.7,5.3h-1a.5.5,0,1,1,0-1h1a.5.5,0,0,1,0,1Z"/></svg>